<?xml version="1.0" standalone="no"?>
<!DOCTYPE svg PUBLIC "-//W3C//DTD SVG 20010904//EN"
 "http://www.w3.org/TR/2001/REC-SVG-20010904/DTD/svg10.dtd">
<svg version="1.0" xmlns="http://www.w3.org/2000/svg"
 width="1024.000000pt" height="1024.000000pt" viewBox="0 0 1024.000000 1024.000000"
 preserveAspectRatio="xMidYMid meet">

<g transform="translate(0.000000,1024.000000) scale(0.100000,-0.100000)"
fill="#000000" stroke="none">
<path d="M4822 7778 c-9 -9 -12 -98 -12 -338 l0 -326 143 -214 c101 -151 150
-216 164 -218 17 -3 47 35 166 211 l145 214 3 332 c4 287 2 333 -11 341 -23
15 -583 13 -598 -2z m153 -202 c11 -138 -2 -283 -26 -318 -11 -15 -22 -28 -25
-28 -2 0 -4 101 -4 224 l0 223 24 -4 c23 -5 25 -10 31 -97z m175 -105 c-1
-156 -4 -200 -15 -215 -8 -11 -16 -18 -19 -15 -21 25 -26 66 -26 242 l0 194
30 -5 30 -4 0 -197z m168 -134 l-3 -112 -22 31 c-21 29 -23 44 -26 222 l-4
191 26 3 26 3 3 -113 c1 -62 1 -163 0 -225z m-195 -247 c8 0 33 21 55 46 l39
46 32 -41 33 -41 -42 -68 c-63 -99 -66 -102 -121 -102 l-49 0 -56 85 -56 84
32 41 33 41 42 -45 c23 -25 49 -46 58 -46z"/>
<path d="M3592 6727 c-6 -7 -13 -58 -14 -113 l-3 -99 -140 -3 c-78 -1 -144 -7
-150 -13 -13 -13 -7 -2399 7 -2416 7 -8 145 -13 521 -16 470 -4 520 -6 608
-25 255 -54 414 -124 614 -268 42 -30 81 -54 86 -54 5 0 48 29 96 65 140 106
341 199 514 239 175 41 256 46 734 46 452 0 466 1 485 20 20 20 20 33 20 1209
0 971 -2 1191 -13 1199 -8 7 -71 13 -153 14 l-139 3 -3 99 c-1 55 -8 106 -14
113 -16 20 -609 18 -788 -2 -223 -26 -439 -83 -627 -167 l-113 -50 -102 46
c-222 99 -430 150 -708 175 -174 16 -705 14 -718 -2z m633 -107 c303 -22 551
-80 758 -177 l77 -36 0 -1079 0 -1078 -67 34 c-171 85 -416 156 -633 181 -81
10 -220 15 -397 15 l-273 0 0 1068 c0 588 3 1072 7 1075 10 11 370 8 528 -3z
m2317 -817 c2 -456 2 -939 0 -1075 l-3 -248 -275 0 c-151 0 -318 -5 -372 -11
-214 -23 -433 -83 -619 -169 -47 -22 -87 -40 -89 -40 -2 0 -4 484 -4 1075 l0
1074 30 16 c160 83 441 160 670 184 152 16 172 17 427 19 l232 2 3 -827z
m-2964 -413 c1 -562 6 -1008 11 -1013 5 -5 159 -10 342 -12 251 -2 362 -6 448
-19 234 -35 469 -111 634 -206 48 -27 95 -50 105 -50 9 0 31 9 47 21 94 64
326 158 480 194 174 42 310 54 664 60 183 3 337 8 342 11 5 3 9 429 9 1015 l0
1009 95 0 95 0 0 -1104 0 -1105 -472 -3 c-404 -3 -485 -7 -558 -22 -247 -51
-431 -125 -607 -243 -52 -35 -96 -63 -98 -63 -2 0 -32 22 -67 48 -118 89 -310
177 -491 223 -197 50 -209 51 -699 56 l-468 5 0 1104 0 1105 93 -3 92 -3 3
-1005z"/>
<path d="M3860 6448 c-31 -17 -39 -68 -15 -92 13 -13 39 -16 139 -16 307 0
640 -48 830 -120 64 -25 88 -25 109 -2 22 24 21 55 -1 75 -46 41 -371 124
-572 146 -174 19 -462 24 -490 9z"/>
<path d="M3842 6158 c-16 -16 -15 -60 1 -80 10 -13 48 -17 217 -22 296 -9 521
-43 722 -110 109 -37 134 -34 153 18 8 24 6 31 -14 47 -53 43 -350 119 -567
144 -159 18 -494 21 -512 3z"/>
<path d="M3837 5872 c-22 -24 -21 -55 1 -75 15 -14 40 -17 131 -17 128 0 151
8 151 50 0 52 -19 60 -149 60 -102 0 -120 -3 -134 -18z"/>
<path d="M4239 5856 c-7 -14 -9 -36 -5 -50 7 -30 22 -34 221 -64 77 -11 196
-37 265 -58 165 -49 181 -51 205 -25 32 37 11 71 -60 100 -128 51 -464 121
-581 121 -27 0 -37 -5 -45 -24z"/>
<path d="M3841 5596 c-16 -20 -18 -61 -2 -79 8 -11 64 -15 223 -20 291 -9 472
-35 671 -96 50 -16 104 -35 120 -42 20 -9 33 -9 52 -1 28 13 43 57 28 81 -14
23 -109 58 -258 96 -202 52 -314 66 -580 72 -215 5 -242 4 -254 -11z"/>
<path d="M3892 5333 c-56 -6 -80 -38 -60 -80 l13 -28 200 -6 c319 -11 507 -39
718 -110 67 -22 127 -37 138 -34 25 8 42 42 35 70 -13 53 -337 146 -606 174
-112 12 -376 20 -438 14z"/>
<path d="M3840 5035 c-7 -8 -12 -26 -12 -40 0 -49 15 -55 141 -55 311 0 621
-46 842 -126 57 -21 77 -24 95 -15 27 12 42 56 27 80 -14 23 -237 96 -383 125
-172 35 -301 46 -515 46 -150 0 -185 -3 -195 -15z"/>
<path d="M3840 4755 c-17 -20 -16 -64 1 -80 10 -8 65 -14 176 -18 152 -6 163
-5 187 14 31 24 33 52 6 79 -18 18 -33 20 -189 20 -138 0 -171 -3 -181 -15z"/>
<path d="M4355 4725 c-14 -13 -25 -31 -25 -40 0 -22 37 -55 61 -55 46 0 275
-52 374 -85 119 -40 136 -42 158 -17 53 58 -3 99 -214 156 -80 22 -295 66
-321 66 -5 0 -20 -11 -33 -25z"/>
<path d="M5990 6449 c-162 -9 -333 -39 -487 -83 -194 -56 -235 -86 -198 -142
21 -32 37 -31 198 19 207 64 455 97 736 97 121 0 140 2 154 18 24 26 21 68 -5
86 -25 18 -165 20 -398 5z"/>
<path d="M5940 6164 c-14 -2 -65 -9 -115 -15 -183 -22 -464 -97 -507 -135 -24
-22 -23 -56 2 -79 22 -20 20 -20 188 28 213 62 483 96 764 97 118 0 138 9 138
59 0 49 -8 51 -234 50 -116 -1 -222 -3 -236 -5z"/>
<path d="M6246 5892 c-61 -1 -116 -8 -123 -14 -21 -17 -16 -75 6 -88 11 -5 71
-10 134 -10 98 0 116 3 130 18 29 32 16 83 -23 93 -8 2 -64 3 -124 1z"/>
<path d="M5795 5865 c-188 -28 -447 -99 -479 -131 -21 -21 -20 -57 2 -77 24
-22 25 -22 155 17 132 40 232 61 382 81 118 15 135 25 135 77 0 50 -35 56
-195 33z"/>
<path d="M6130 5609 c-207 -6 -346 -21 -382 -40 -40 -22 -46 -79 -10 -98 11
-6 57 -4 122 5 58 8 199 17 313 21 195 6 209 7 223 27 25 37 11 79 -31 88 -11
2 -117 1 -235 -3z"/>
<path d="M5465 5511 c-147 -44 -174 -64 -161 -115 11 -46 38 -46 170 -4 67 21
127 46 134 55 17 24 15 57 -6 76 -24 22 -30 21 -137 -12z"/>
<path d="M6075 5329 c-177 -7 -314 -25 -458 -58 -113 -27 -267 -77 -294 -96
-29 -20 -30 -65 -3 -90 20 -18 23 -17 128 18 208 70 423 104 730 114 190 6
204 8 218 27 36 51 4 84 -86 88 -36 2 -141 0 -235 -3z"/>
<path d="M5940 5043 c-246 -25 -592 -114 -627 -160 -19 -25 -16 -57 7 -78 20
-19 23 -18 133 18 220 72 421 104 720 114 195 6 209 8 223 27 19 28 18 50 -4
69 -16 15 -45 17 -218 15 -109 0 -215 -3 -234 -5z"/>
<path d="M5889 4755 c-59 -7 -121 -16 -138 -20 -50 -11 -68 -66 -32 -99 17
-16 27 -17 90 -7 83 13 361 31 482 31 93 0 119 13 119 58 0 48 -17 52 -223 51
-106 -1 -240 -7 -298 -14z"/>
<path d="M5437 4661 c-112 -37 -137 -53 -137 -90 0 -28 26 -61 49 -61 15 0
204 65 231 80 29 15 36 56 15 80 -24 27 -53 25 -158 -9z"/>
<path d="M2667 3183 c-4 -3 -7 -26 -7 -50 0 -48 -3 -46 85 -47 l60 -1 5 -225
5 -225 50 0 50 0 3 228 2 227 69 0 c73 0 81 5 81 54 0 43 -14 46 -210 46 -103
0 -190 -3 -193 -7z"/>
<path d="M3227 3183 c-3 -5 -35 -90 -70 -189 -36 -98 -79 -217 -96 -263 -16
-46 -28 -88 -25 -93 8 -13 90 -9 101 5 5 6 17 33 27 60 l18 47 97 0 98 0 18
-47 c10 -27 22 -54 28 -60 11 -15 93 -17 102 -3 6 9 -171 517 -186 534 -11 13
-105 20 -112 9z m86 -236 c15 -46 27 -86 27 -90 0 -4 -27 -7 -61 -7 -69 0 -66
-13 -26 113 11 37 24 67 27 67 3 0 18 -37 33 -83z"/>
<path d="M3670 3179 c-61 -25 -100 -85 -100 -156 0 -88 49 -135 169 -163 58
-14 91 -39 91 -70 0 -62 -105 -82 -175 -34 l-38 26 -35 -36 c-36 -35 -36 -35
-16 -57 54 -61 200 -82 281 -40 108 55 122 214 23 270 -21 12 -63 29 -92 37
-29 9 -63 22 -75 30 -29 18 -30 64 -3 89 25 23 96 16 138 -14 l30 -21 31 32
c36 37 38 49 13 71 -47 43 -177 62 -242 36z"/>
<path d="M4022 3182 c-9 -7 -12 -69 -10 -278 l3 -269 53 -3 52 -3 0 103 c0 57
4 109 9 116 6 9 30 -16 85 -87 42 -55 83 -107 92 -115 19 -20 124 -23 124 -4
0 7 -46 72 -101 145 l-101 133 80 99 c134 166 138 178 45 164 -51 -8 -52 -9
-137 -117 -53 -68 -87 -104 -91 -95 -2 8 -6 59 -7 114 l-3 100 -40 3 c-22 1
-46 -2 -53 -6z"/>
<path d="M4456 3183 c-3 -4 -6 -26 -6 -50 l0 -43 70 0 70 0 2 -227 3 -228 50
0 50 0 5 225 5 225 68 3 68 3 -3 47 -3 47 -186 2 c-103 1 -190 -1 -193 -4z"/>
<path d="M4899 3189 c-5 -15 -7 -492 -3 -521 6 -38 6 -38 54 -38 58 0 60 3 60
121 0 120 16 120 89 1 76 -122 76 -122 132 -122 26 0 50 4 53 8 3 5 -22 53
-56 106 l-60 97 23 17 c40 28 67 62 80 99 16 49 7 124 -20 162 -38 53 -71 64
-218 69 -73 3 -134 3 -134 1z m252 -128 c24 -29 24 -72 1 -101 -13 -16 -32
-23 -80 -27 l-62 -6 0 83 0 82 61 -4 c49 -4 66 -9 80 -27z"/>
<path d="M5497 3168 c-16 -25 -187 -508 -187 -527 0 -8 18 -11 52 -9 l52 3 21
55 21 55 99 3 100 3 21 -58 c20 -57 21 -58 64 -61 23 -2 47 1 52 6 10 10 -61
231 -145 457 l-34 90 -51 3 c-44 3 -53 0 -65 -20z m108 -270 l14 -48 -64 0
c-63 0 -64 1 -56 23 5 12 19 56 31 97 l22 75 19 -50 c11 -28 26 -71 34 -97z"/>
<path d="M5975 3176 c-46 -20 -94 -64 -118 -110 -19 -35 -22 -57 -22 -156 0
-99 3 -121 21 -155 28 -52 70 -94 114 -113 41 -18 152 -19 195 -3 39 16 95 54
95 65 0 5 -11 24 -25 42 l-25 33 -48 -25 c-37 -20 -57 -25 -95 -21 -83 7 -127
68 -127 177 0 106 43 168 124 177 35 4 54 1 81 -16 47 -28 56 -27 90 9 28 29
28 30 9 51 -47 54 -193 78 -269 45z"/>
<path d="M6335 3177 c-3 -7 -4 -131 -3 -277 l3 -265 50 0 50 0 5 113 5 114 21
-24 c11 -12 49 -61 84 -108 35 -47 69 -88 74 -92 14 -9 110 -10 119 -2 7 8
-55 99 -141 207 l-54 68 18 27 c10 15 50 68 89 117 90 113 91 115 74 126 -19
12 -76 11 -99 -1 -11 -6 -53 -55 -95 -110 -41 -54 -79 -101 -85 -105 -6 -4
-10 32 -10 103 0 121 -1 122 -66 122 -19 0 -37 -6 -39 -13z"/>
<path d="M6795 3177 c-3 -7 -4 -131 -3 -277 l3 -265 160 0 160 0 3 47 3 47
-108 3 -108 3 -3 63 -3 62 96 0 96 0 -3 48 -3 47 -93 3 -93 3 3 62 3 62 110 5
c106 5 110 6 113 29 2 12 1 34 -2 47 l-6 24 -161 0 c-119 0 -161 -3 -164 -13z"/>
<path d="M7208 3184 c-5 -4 -8 -131 -8 -281 l0 -274 53 3 52 3 3 103 c3 100 3
102 26 102 13 0 27 -8 30 -17 4 -9 32 -56 63 -105 l56 -88 53 0 c29 0 55 4 58
9 3 5 -21 50 -54 100 -33 50 -60 95 -60 99 1 4 15 16 32 27 51 32 71 68 76
132 3 47 -1 67 -20 102 -37 70 -77 85 -228 89 -69 2 -128 0 -132 -4z m225
-103 c16 -6 29 -23 37 -45 23 -71 -26 -113 -117 -100 l-43 6 0 74 0 74 49 0
c27 0 61 -4 74 -9z"/>
</g>
</svg>
